<?xml version="1.0" encoding="utf-8"?>
<!-- Generator: Adobe Illustrator 15.1.0, SVG Export Plug-In . SVG Version: 6.00 Build 0)  -->
<!DOCTYPE svg PUBLIC "-//W3C//DTD SVG 1.1//EN" "http://www.w3.org/Graphics/SVG/1.1/DTD/svg11.dtd">
<svg version="1.1" id="Слой_1" xmlns="http://www.w3.org/2000/svg" xmlns:xlink="http://www.w3.org/1999/xlink" x="0px" y="0px"
	 width="60px" height="60px" viewBox="0 0 60 60" enable-background="new 0 0 60 60" xml:space="preserve">
<circle fill="#9B9B9B" cx="30" cy="30" r="30"/>
<path fill="#FFFFFF" d="M42.995,15.741h-4.31v2.667c0,0.701-1.592,1.267-2.294,1.267c-0.698,0-2.294-0.566-2.294-1.267v-2.667
	h-7.895v2.667c0,0.701-1.596,1.267-2.294,1.267c-0.7,0-2.295-0.566-2.295-1.267v-2.667h-4.607c-0.7,0-1.269,0.568-1.269,1.268
	v25.982c0,0.703,0.568,1.268,1.269,1.268h25.988c0.699,0,1.265-0.565,1.265-1.268V17.009C44.26,16.309,43.694,15.741,42.995,15.741z
	 M41.382,41.379H18.617V22.271h22.765V41.379z"/>
</svg>
