<?xml version="1.0" encoding="utf-8"?>
<!-- Generator: Adobe Illustrator 15.1.0, SVG Export Plug-In . SVG Version: 6.00 Build 0)  -->
<!DOCTYPE svg PUBLIC "-//W3C//DTD SVG 1.1//EN" "http://www.w3.org/Graphics/SVG/1.1/DTD/svg11.dtd">
<svg version="1.1" id="Layer_1" xmlns="http://www.w3.org/2000/svg" xmlns:xlink="http://www.w3.org/1999/xlink" x="0px" y="0px"
	 width="40px" height="40px" viewBox="0 0 40 40" enable-background="new 0 0 40 40" xml:space="preserve">
<g>
	<path fill="none" d="M21.194,14.24v-0.348c0-0.858,0.768-1.165,1.627-1.165c0.857,0,1.778,0.267,1.778,0.267l0.551-3.271
		c0,0-1.173-0.397-3.956-0.397c-1.709,0-2.703,0.65-3.426,1.607c-0.686,0.902-0.711,2.361-0.711,3.307v0.164v0.98v1.002H14.85v3.193
		h2.207v11.093h4.137V19.58h3.273l0.246-3.193h-3.52v-1.002V14.24z"/>
	<path fill="#7c7c7c" d="M20,0C8.955,0,0,8.954,0,20s8.955,20,20,20s20-8.954,20-20S31.045,0,20,0z M24.713,16.387l-0.246,3.193
		h-3.273v11.093h-4.137V19.58H14.85v-3.193h2.207v-1.002v-0.98V14.24c0-0.945,0.025-2.404,0.711-3.307
		c0.724-0.957,1.717-1.607,3.426-1.607c2.783,0,3.956,0.397,3.956,0.397l-0.551,3.271c0,0-0.921-0.267-1.778-0.267
		c-0.859,0-1.627,0.307-1.627,1.165v0.348v1.145v1.002H24.713z"/>
</g>
</svg>
