<?xml version="1.0" encoding="utf-8"?>
<!-- Generator: Adobe Illustrator 15.1.0, SVG Export Plug-In . SVG Version: 6.00 Build 0)  -->
<!DOCTYPE svg PUBLIC "-//W3C//DTD SVG 1.1//EN" "http://www.w3.org/Graphics/SVG/1.1/DTD/svg11.dtd">
<svg version="1.1" id="Isolation_Mode" xmlns="http://www.w3.org/2000/svg" xmlns:xlink="http://www.w3.org/1999/xlink" x="0px"
	 y="0px" width="300px" height="86px" viewBox="0 0 300 86" enable-background="new 0 0 300 86" xml:space="preserve">
<g>
	<path fill="#FF815A" d="M236.473,29.576c5.448,1.875,9.608,6.493,9.134,11.204c-0.081,0.852-0.868,1.077-0.89,1.649
		c-0.059,0.876,0.182,1.875-1.215,4.788c-0.222,0.499-0.452,1.146-0.975,1.463c-0.54,0.323-1.03,0.675-1.199,1.304
		c-0.354,1.288-0.315,2.232-0.233,3.214c0.057,0.672,0.252,0.999-0.016,1.231c-0.262,0.253-0.847,0.404-1.642,0.21
		c-0.425-0.104-0.436-0.116-0.605,0.047c-0.559,0.54-0.303,1.486-0.329,1.354c-0.039-0.198,0.062,0.233,0.019,0.311
		c-0.173,0.313-0.582,0.523-1.715,0.391c-0.215-0.028,0.898,0.452,0.226,1.216c-0.222,0.247-0.269,0.113-0.674,0.238
		c-0.614,0.192-0.858,0.738-0.899,0.896c-0.217,0.781-1.484,1.039-2.813,0.037c-0.942-0.701-2.729-3.374-4.213-3.7
		c-1.863-0.399-5.418,1.457-6.466,2.56c-1.009,1.04-0.233,3.198-0.375,3.204c0.023,1.919-1.543,2.24-3.986,1.828
		c-3.813-0.642-6.759-4.473-7.355-7.093c-0.769-3.226,4.706-5.695,8.175-7.671c3.599-2.029,0.812-1.559,1.257-1.845
		c2.5-1.859,0.807-2.745,2.14-7.525C224.289,29.937,229.406,27.119,236.473,29.576"/>
	<path fill="#FF815A" d="M252.803,16.064c3.229,6.412-0.855,22.819-4.987,30.238l-0.333-0.258c3.228-5.88,7.291-23.025,3.413-29.383
		L252.803,16.064z"/>
	<path fill="#FF815A" d="M245.035,32.8c-1.803-3.511-6.751-7.528-10.959-8.946c-6.803-2.29-10.194-0.012-11.95,6.152
		c-0.447-1.606-0.636-3.906-0.856-6.399c-0.135-1.543-0.55-2.972-0.355-6.227C221.685,4.68,239.532,13.513,245.035,32.8"/>
	<path fill="#FF815A" d="M226.888,0.091c6.31-1.263,19.213,10.715,20.246,31.809c-5.208-17.111-19.127-32.529-26.543-23.233
		C220.97,0.436,226.888,0.091,226.888,0.091"/>
	<path fill="#FF815A" d="M268.825,52.745c-3.521-4.555-9.233-7.018-13.555-5.063c-0.78,0.35-0.744,1.165-1.281,1.37
		c-0.812,0.336-1.835,0.427-4.157,2.679c-0.4,0.368-0.939,0.789-1.077,1.386c-0.135,0.615-0.313,1.19-0.851,1.551
		c-1.114,0.745-2.022,1.013-2.979,1.247c-0.658,0.161-1.029,0.083-1.164,0.406c-0.156,0.33-0.113,0.933,0.325,1.621
		c0.231,0.37,0.249,0.377,0.146,0.588c-0.334,0.703-1.314,0.763-1.18,0.744c0.201-0.025-0.239,0.016-0.303,0.084
		c-0.238,0.258-0.307,0.716,0.184,1.743c0.091,0.198-0.72-0.705-1.228,0.177c-0.167,0.289-0.022,0.292-0.013,0.716
		c0.013,0.642-0.428,1.046-0.563,1.135c-0.675,0.455-0.513,1.736,0.862,2.677c0.966,0.661,4.071,1.501,4.855,2.802
		c0.976,1.632,0.346,5.59-0.367,6.935c-0.662,1.285-2.959,1.238-2.918,1.376c-1.831,0.591-1.636,2.177-0.468,4.355
		c1.828,3.404,6.405,4.969,9.084,4.698c3.306-0.305,3.903-6.276,4.671-10.188c0.777-4.052,1.221-1.263,1.352-1.777
		c0.968-2.956,2.349-1.638,6.46-4.427C272.371,64.389,273.41,58.647,268.825,52.745"/>
	<path fill="#FF815A" d="M276.435,32.984c-7.113-1.009-21.389,8.094-27.112,14.371l0.354,0.232
		c4.549-4.929,19.525-14.249,26.801-12.608L276.435,32.984z"/>
	<path fill="#FF815A" d="M263.025,45.676c3.91,0.584,9.306,3.984,11.993,7.516c4.344,5.7,3.268,9.64-2.024,13.268
		c1.668-0.087,3.908-0.644,6.35-1.233c1.504-0.365,2.995-0.425,6.021-1.65C297.175,58.792,283.092,44.725,263.025,45.676"/>
	<path fill="#FF815A" d="M299.871,52.4c-0.815-6.368-16.306-14.752-36.656-9c17.903-0.531,36.981,7.715,30.523,17.7
		C301.431,58.114,299.871,52.4,299.871,52.4"/>
	<g>
		<path fill="#231F20" d="M0,34.849h20.625v3.128H3.527v11.886h6.907c7.446,0,12.492,3.276,12.492,9.831
			c0,6.553-4.898,9.78-12.394,9.78H0V34.849z M10.141,66.442c5.78,0,9.209-2.104,9.209-6.698c0-4.452-3.282-6.849-9.209-6.849H3.527
			v13.547H10.141z"/>
		<path fill="#231F20" d="M36.736,34.849h3.527v29.148h0.098l19.105-29.148h3.968v34.625h-3.527V40.032H59.81L40.705,69.474h-3.968
			V34.849z"/>
		<path fill="#231F20" d="M79.498,34.849h3.527v15.553h0.049l16.509-15.553h5.045L87.14,50.547l18.469,18.927h-5.193L83.074,51.036
			h-0.049v18.438h-3.527V34.849z"/>
		<path fill="#231F20" d="M113.099,52.163c0-10.517,7.742-18.194,18.077-18.194c10.337,0,18.077,7.678,18.077,18.194
			c0,10.514-7.74,18.193-18.077,18.193C120.841,70.356,113.099,62.676,113.099,52.163z M145.531,52.163
			c0-8.071-5.438-15.114-14.354-15.114s-14.353,7.043-14.353,15.114c0,8.068,5.437,15.063,14.353,15.063
			S145.531,60.231,145.531,52.163z"/>
		<path fill="#231F20" d="M157.675,66.345h2.792c3.968-4.109,6.074-10.907,6.074-22.107v-9.389h21.311v31.496h3.918v11.639h-3.33
			v-8.51h-27.434v8.51h-3.331V66.345z M184.324,66.345V37.977h-14.353v6.261c0,11.983-2.548,18.732-5.047,22.107H184.324z"/>
	</g>
</g>
</svg>
