<?xml version="1.0" encoding="utf-8"?>
<!-- Generator: Adobe Illustrator 15.1.0, SVG Export Plug-In . SVG Version: 6.00 Build 0)  -->
<!DOCTYPE svg PUBLIC "-//W3C//DTD SVG 1.1//EN" "http://www.w3.org/Graphics/SVG/1.1/DTD/svg11.dtd">
<svg version="1.1" id="Слой_1" xmlns="http://www.w3.org/2000/svg" xmlns:xlink="http://www.w3.org/1999/xlink" x="0px" y="0px"
	 width="60px" height="60px" viewBox="0 0 60 60" enable-background="new 0 0 60 60" xml:space="preserve">
<circle fill="#9B9B9B" cx="30" cy="30" r="30"/>
<path fill-rule="evenodd" clip-rule="evenodd" fill="#FFFFFF" stroke="#FFFFFF" stroke-miterlimit="10" d="M27.496,37.958
	L25.61,39.83l-2.449-2.61l-3.197,3.066l0.309,4.598l-3.092-3.223l-3.088-3.221l4.548,0.531l3.231-3.097l-2.476-2.581l1.919-1.78l0,0
	l1.466-1.405l1.347-1.292l1.109-1.063l1.347-1.292l1.109-1.064l1.347-1.292l6.18-5.925l0.29-0.279l0.401,0.021l4.434,0.236
	l2.218-2.127l1.291,1.346l-2.219,2.127l0.051,4.439l0.003,0.401l-0.289,0.279L27.496,37.958L27.496,37.958z M25.405,30.15
	L25.405,30.15l-1.346,1.291l0,0L22.7,32.745l3.621,3.777l8.979-8.609l-3.622-3.777l-1.359,1.304l0,0l-1.347,1.291l0,0l-1.109,1.064
	l0,0l-1.348,1.292l0,0L25.405,30.15z"/>
</svg>
