<?xml version="1.0" encoding="utf-8"?>
<!-- Generator: Adobe Illustrator 15.1.0, SVG Export Plug-In . SVG Version: 6.00 Build 0)  -->
<!DOCTYPE svg PUBLIC "-//W3C//DTD SVG 1.1//EN" "http://www.w3.org/Graphics/SVG/1.1/DTD/svg11.dtd">
<svg version="1.1" id="Слой_1" xmlns="http://www.w3.org/2000/svg" xmlns:xlink="http://www.w3.org/1999/xlink" x="0px" y="0px"
	 width="60px" height="60px" viewBox="0 0 60 60" enable-background="new 0 0 60 60" xml:space="preserve">
<circle fill="#9B9B9B" cx="30" cy="30" r="30"/>
<g>
	<path fill-rule="evenodd" clip-rule="evenodd" fill="#FFFFFF" d="M30,48.051c-1.699-0.904-2.706-2.348-2.706-3.895
		c0-0.165,0.012-0.328,0.034-0.49l0.911-6.356c0.271-2.198-0.123-2.661-1.794-3.548l-0.11-0.059
		c-3.545-1.887-5.836-5.785-5.836-9.93c0-5.164,3.633-10.737,9.501-10.737s9.501,5.573,9.501,10.737c0,4.365-2.321,8.344-5.777,9.9
		c-2.131,0.961-2.368,1.406-1.956,3.673l0.904,6.321c0.022,0.16,0.034,0.323,0.034,0.488C32.706,45.703,31.698,47.147,30,48.051z
		 M30.001,41.553c-1.437,0-2.604,1.168-2.604,2.604c0,1.438,1.168,2.605,2.604,2.605c1.436,0,2.604-1.168,2.604-2.605
		C32.604,42.721,31.437,41.553,30.001,41.553z M30,13.992c-4.701,0-8.526,4.389-8.526,9.781s3.825,9.779,8.526,9.779
		c4.7,0,8.524-4.387,8.524-9.779S34.7,13.992,30,13.992z"/>
	<path fill="#FFFFFF" d="M28.901,34.482c0.36,0.047,0.727,0.07,1.099,0.07c0.315,0,0.627-0.018,0.935-0.051
		c-0.4,0.708-0.405,1.611-0.158,2.986l0.471,3.287c-0.389-0.144-0.809-0.223-1.246-0.223c-0.438,0-0.859,0.079-1.249,0.224
		l0.482-3.363C29.402,36.049,29.309,35.164,28.901,34.482 M30,12.036c-6.296,0-10.501,5.823-10.501,11.737
		c0,4.498,2.52,8.765,6.366,10.813c1.45,0.771,1.604,0.803,1.384,2.582l-0.911,6.359c-0.029,0.207-0.044,0.416-0.044,0.629
		c0,2.051,1.368,3.852,3.431,4.877C29.813,49.078,29.906,49.1,30,49.1c0.093,0,0.186-0.021,0.275-0.066
		c2.063-1.025,3.431-2.826,3.431-4.877c0-0.213-0.015-0.422-0.044-0.629l-0.911-6.359c-0.329-1.811-0.329-1.811,1.384-2.582
		c3.973-1.791,6.366-6.314,6.366-10.813C40.501,17.859,36.296,12.036,30,12.036L30,12.036z M30,32.553
		c-4.157,0-7.526-3.932-7.526-8.779c0-4.849,3.369-8.781,7.526-8.781c4.156,0,7.524,3.933,7.524,8.781
		C37.524,28.621,34.156,32.553,30,32.553L30,32.553z M30.001,45.762c-0.886,0-1.604-0.719-1.604-1.605
		c0-0.885,0.719-1.604,1.604-1.604c0.887,0,1.604,0.719,1.604,1.604C31.604,45.043,30.888,45.762,30.001,45.762L30.001,45.762z"/>
</g>
</svg>
