<?xml version="1.0" encoding="utf-8"?>
<!-- Generator: Adobe Illustrator 15.1.0, SVG Export Plug-In . SVG Version: 6.00 Build 0)  -->
<!DOCTYPE svg PUBLIC "-//W3C//DTD SVG 1.1//EN" "http://www.w3.org/Graphics/SVG/1.1/DTD/svg11.dtd">
<svg version="1.1" id="Слой_1" xmlns="http://www.w3.org/2000/svg" xmlns:xlink="http://www.w3.org/1999/xlink" x="0px" y="0px"
	 width="60px" height="60px" viewBox="0 0 60 60" enable-background="new 0 0 60 60" xml:space="preserve">
<circle fill="#9B9B9B" cx="30" cy="30" r="30"/>
<path fill="none" stroke="#FFFFFF" stroke-width="3" stroke-miterlimit="10" d="M30.171,13.046c9.666,0,9.009,10.576,7.724,15.295
	c-1.081,2.625-3.862,8.419-7.646,8.419c-3.785,0-6.565-5.794-7.646-8.419c-1.244-4.893-2.111-15.295,7.569-15.29V13.046"/>
<path fill="none" stroke="#FFFFFF" stroke-width="3" stroke-miterlimit="10" d="M26.362,34.896c0,0,0.48,4.841-1.555,6.788"/>
<path fill="none" stroke="#FFFFFF" stroke-width="3" stroke-miterlimit="10" d="M25.61,40.543c0,0-0.803,2.6-6.065,2.924"/>
<path fill="none" stroke="#FFFFFF" stroke-width="3" stroke-miterlimit="10" d="M33.867,34.896c0,0-0.479,4.841,1.555,6.788"/>
<path fill="none" stroke="#FFFFFF" stroke-width="3" stroke-miterlimit="10" d="M34.62,40.543c0,0,0.802,2.6,6.064,2.924"/>
</svg>
