<?xml version="1.0" encoding="utf-8"?>
<!-- Generator: Adobe Illustrator 15.1.0, SVG Export Plug-In . SVG Version: 6.00 Build 0)  -->
<!DOCTYPE svg PUBLIC "-//W3C//DTD SVG 1.1//EN" "http://www.w3.org/Graphics/SVG/1.1/DTD/svg11.dtd">
<svg version="1.1" id="Layer_1" xmlns="http://www.w3.org/2000/svg" xmlns:xlink="http://www.w3.org/1999/xlink" x="0px" y="0px"
	 width="40px" height="40px" viewBox="0 0 40 40" enable-background="new 0 0 40 40" xml:space="preserve">
<g>
	<g>
		<path fill="none" d="M28.475,12.047c-0.882-0.129-5.109-0.296-8.47-0.296c-3.362,0-7.596,0.167-8.479,0.296
			c-1.531,0.247-2.363,0.931-2.806,2.704c-0.149,0.597-0.355,3.865-0.355,5.112v0.272c0,1.247,0.206,4.515,0.355,5.112
			c0.443,1.773,1.274,2.457,2.806,2.703c0.883,0.131,5.117,0.297,8.479,0.297c3.36,0,7.588-0.168,8.47-0.297
			c1.531-0.246,2.362-0.93,2.806-2.703c0.149-0.598,0.354-3.865,0.354-5.112v-0.272c0-1.247-0.205-4.515-0.354-5.112
			C30.837,12.978,30.006,12.294,28.475,12.047z M16.242,24.755v-9.622l8.998,4.697L16.242,24.755z"/>
		<polygon fill="#7c7c7c" points="16.242,24.755 25.24,19.83 16.242,15.133" />
	</g>
</g>
<path fill="#7c7c7c" d="M20,0C8.955,0,0,8.954,0,20c0,11.046,8.955,20,20,20c11.045,0,20-8.954,20-20C40,8.954,31.045,0,20,0z M31.635,20.136
	c0,1.247-0.205,4.515-0.354,5.112c-0.443,1.773-1.274,2.457-2.806,2.704c-0.882,0.129-5.109,0.296-8.47,0.296h0.003h-0.003h-0.012
	h0.012c-3.362,0-7.596-0.166-8.479-0.296c-1.531-0.247-2.363-0.931-2.806-2.704c-0.149-0.597-0.355-3.865-0.355-5.112v-0.272
	c0-1.247,0.206-4.515,0.355-5.112c0.443-1.773,1.274-2.457,2.806-2.704c0.883-0.129,5.117-0.296,8.479-0.296
	c-0.004,0-0.009,0-0.012,0c0.003,0,0.008,0,0.012,0h0.003h-0.003c3.36,0,7.588,0.167,8.47,0.296
	c1.531,0.247,2.362,0.931,2.806,2.704c0.149,0.597,0.354,3.865,0.354,5.112V20.136z"/>
</svg>
